<?xml version="1.0"?>
<svg xmlns="http://www.w3.org/2000/svg" xmlns:xlink="http://www.w3.org/1999/xlink" version="1.1" id="Capa_1" x="0px" y="0px" viewBox="0 0 384 384" style="enable-background:new 0 0 384 384;" xml:space="preserve" width="512px" height="512px" class=""><g><path style="fill:#FFFFFF;" d="M8,144v208c0,13.232,10.768,24,24,24h320c13.232,0,24-10.768,24-24V144H8z" data-original="#FFFFFF" class=""/><path style="fill:#DF401B" d="M376,144V80c0-13.232-10.768-24-24-24H32C18.768,56,8,66.768,8,80v64H376z" data-original="#756556" class="active-path" data-old_color="#df401b"/><g>
	<polygon style="fill:#4F443A;" points="305.552,55.72 305.552,104.36 354.2,55.72  " data-original="#4F443A" class=""/>
	<polygon style="fill:#4F443A;" points="113.552,55.72 113.552,104.36 162.2,55.72  " data-original="#4F443A" class=""/>
</g><g>
	<path style="fill:#CDD7DE;" d="M288,104c-8.84,0-16-7.16-16-16V24c0-8.84,7.16-16,16-16s16,7.16,16,16v64   C304,96.832,296.84,104,288,104z" data-original="#CDD7DE" class=""/>
	<path style="fill:#CDD7DE;" d="M96,104c-8.84,0-16-7.16-16-16V24c0-8.84,7.16-16,16-16s16,7.16,16,16v64   C112,96.832,104.84,104,96,104z" data-original="#CDD7DE" class=""/>
</g><g>
	<rect x="176" y="208" style="fill:#5885C4;" width="32" height="32" data-original="#5885C4" class=""/>
	<rect x="112" y="208" style="fill:#5885C4;" width="32" height="32" data-original="#5885C4" class=""/>
	<rect x="176" y="272" style="fill:#5885C4;" width="32" height="32" data-original="#5885C4" class=""/>
	<rect x="240" y="272" style="fill:#5885C4;" width="32" height="32" data-original="#5885C4" class=""/>
</g><path style="fill:#010101" d="M352,48h-40V24c0-13.232-10.768-24-24-24s-24,10.768-24,24v24H120V24c0-13.232-10.768-24-24-24  S72,10.768,72,24v24H32C14.328,48,0,62.328,0,80v272c0,17.672,14.328,32,32,32h320c17.672,0,32-14.328,32-32V80  C384,62.328,369.672,48,352,48z M280,24c0-4.416,3.592-8,8-8s8,3.584,8,8v64c0,4.416-3.592,8-8,8s-8-3.584-8-8V24z M88,24  c0-4.416,3.592-8,8-8s8,3.584,8,8v64c0,4.416-3.592,8-8,8s-8-3.584-8-8V24z M368,352c0,8.824-7.176,16-16,16H32  c-8.824,0-16-7.176-16-16V80c0-8.824,7.176-16,16-16h40v24c0,13.232,10.768,24,24,24s24-10.768,24-24V64h144v24  c0,13.232,10.768,24,24,24s24-10.768,24-24V64h40c8.824,0,16,7.176,16,16V352z" data-original="#010101" class=""/></g> </svg>
