<?xml version="1.0" encoding="utf-8"?>
<!-- Generator: Adobe Illustrator 17.1.0, SVG Export Plug-In . SVG Version: 6.00 Build 0)  -->
<!DOCTYPE svg PUBLIC "-//W3C//DTD SVG 1.1//EN" "http://www.w3.org/Graphics/SVG/1.1/DTD/svg11.dtd">
<svg version="1.1" id="Layer_1" xmlns="http://www.w3.org/2000/svg" xmlns:xlink="http://www.w3.org/1999/xlink" x="0px" y="0px"
	 viewBox="0 180 612 612" enable-background="new 0 180 612 612" xml:space="preserve">
<g>
	<path display="none" fill="#C34366" d="M306,180c169,0,306,137,306,306S475,792,306,792S0,655,0,486S137,180,306,180z"/>
	<path fill="#FFFFFF" d="M411.6,313.8H200.4c-36.7,0-66.5,29.9-66.5,66.5v211.3c0,36.7,29.9,66.5,66.5,66.5h211.3
		c36.7,0,66.5-29.9,66.5-66.5V380.4C478.2,343.7,448.3,313.8,411.6,313.8z M432.6,352.3h7.5v57.1l-57.6,0.2l-0.2-57.1L432.6,352.3z
		 M306,428.4c47.8,0,57.6,44.8,57.6,57.6c0,31.7-25.9,57.6-57.6,57.6c-31.8,0-57.6-25.9-57.6-57.6
		C248.4,473.2,258.2,428.4,306,428.4z M440.4,587.5c0,18.2-14.8,33-33,33H203.9c-18.2,0-33-14.8-33-33V447.7h47.8
		c-4.4,10.9-6.9,25.8-6.9,38.3c0,51.9,42.2,94.2,94.2,94.2s94.1-42.2,94.1-94.2c0-12.5-2.5-27.4-6.9-38.3h47.2L440.4,587.5
		L440.4,587.5z"/>
</g>
</svg>
