<?xml version="1.0" encoding="utf-8"?>
<!-- Generator: Adobe Illustrator 17.1.0, SVG Export Plug-In . SVG Version: 6.00 Build 0)  -->
<!DOCTYPE svg PUBLIC "-//W3C//DTD SVG 1.1//EN" "http://www.w3.org/Graphics/SVG/1.1/DTD/svg11.dtd">
<svg version="1.1" id="Capa_1" xmlns="http://www.w3.org/2000/svg" xmlns:xlink="http://www.w3.org/1999/xlink" x="0px" y="0px"
	 viewBox="0 180 612 612" enable-background="new 0 180 612 612" xml:space="preserve">
<g>
	<g>
		<circle id="XMLID_11_" display="none" fill="#C34366" cx="306" cy="486" r="306"/>
	</g>
	<path fill="#FFFFFF" d="M294.4,620.2h24c0,0,7.3-0.8,11-4.8c3.4-3.7,3.3-10.5,3.3-10.5s-0.5-32.2,14.5-37
		c14.7-4.7,33.7,31.1,53.7,44.9c15.2,10.4,26.7,8.1,26.7,8.1l53.7-0.7c0,0,28.1-1.7,14.8-23.8c-1.1-1.8-7.8-16.3-39.9-46.2
		C422.6,519,427.1,524,467.6,470c24.7-32.9,34.6-53,31.5-61.6c-2.9-8.2-21.1-6-21.1-6l-60.4,0.4c0,0-4.5-0.6-7.8,1.4
		c-3.2,1.9-5.3,6.5-5.3,6.5s-9.6,25.5-22.3,47.1c-26.9,45.7-37.7,48.1-42.1,45.3c-10.2-6.6-7.7-26.6-7.7-40.7
		c0-44.3,6.7-62.7-13.1-67.5c-6.6-1.6-11.4-2.6-28.2-2.8c-21.6-0.2-39.8,0.1-50.1,5.1c-6.9,3.4-12.2,10.9-8.9,11.3
		c4,0.5,13,2.4,17.8,9c6.2,8.4,6,27.3,6,27.3s3.6,52.1-8.3,58.6c-8.1,4.4-19.3-4.6-43.3-46.1c-12.3-21.2-21.6-44.7-21.6-44.7
		s-1.8-4.4-5-6.7c-3.9-2.8-9.3-3.7-9.3-3.7l-57.4,0.4c0,0-8.6,0.2-11.8,4c-2.8,3.3-0.2,10.2-0.2,10.2s44.9,105.2,95.8,158.1
		C241.4,623.4,294.4,620.2,294.4,620.2L294.4,620.2z"/>
</g>
</svg>
