<?xml version="1.0" encoding="utf-8"?>
<!-- Generator: Adobe Illustrator 17.1.0, SVG Export Plug-In . SVG Version: 6.00 Build 0)  -->
<!DOCTYPE svg PUBLIC "-//W3C//DTD SVG 1.1//EN" "http://www.w3.org/Graphics/SVG/1.1/DTD/svg11.dtd">
<svg version="1.1" id="Layer_1" xmlns="http://www.w3.org/2000/svg" xmlns:xlink="http://www.w3.org/1999/xlink" x="0px" y="0px"
	 viewBox="-2423.5 -2492.6 4864.2 4865.4" enable-background="new -2423.5 -2492.6 4864.2 4865.4" xml:space="preserve">
<g>
	<path fill="#0D9F16" d="M2440.7-59.9c0,1343.3-1089.4,2432.7-2432.1,2432.7c-1343.3,0-2432.1-1090-2432.1-2432.7
		S-1335.4-2492.6,8-2492.6S2440.7-1403.3,2440.7-59.9z"/>
	<g>
		<path fill="#FCFCFC" d="M1415.6-399C1257-1056.9,690.9-1505.5,7.3-1513.4c-90,1.2-184.2,8.6-277.8,28.2
			C-1225.2-1291.9-1719.7-233.7-1254,620.6c12.2,22.6,12.9,41.6,6.1,64.9c-61.8,225.2-123,450.4-184.8,675
			c-9.8,36.7-9.8,36.7,26.9,27.5c233.8-61.2,467-121.8,700.1-183.6c19.6-4.9,34.3-3.1,52,6.1c300.5,153.6,616.9,198.9,948.6,134.6
			C1086.9,1190.4,1604.7,385,1415.6-399z M208.7,1113.3c-64.9,11-131,17.1-165.2,16.5c-254-0.6-460.8-57.5-651.2-172.6
			c-24.5-14.7-45.3-18.4-74.1-11c-127.9,35.5-257,67.3-384.9,101c-26.9,8-29.4,2.4-22.6-22c33.7-121.8,66.1-243,101-363.5
			c9.8-33.7,6.1-60-12.9-90c-263.2-422.9-252.1-950.4,42.2-1341.5c306-407.6,722.2-574.7,1219.7-468.2
			c490.8,103.4,803.6,419.8,918.6,908.2C1336.6,337.2,883.7,1000.7,208.7,1113.3z"/>
		<path fill="#FDFDFD" d="M384.9,621.8c-51.4,2.4-100.4-9.8-149.9-22.6C-96.7,503.7-345.2,296.2-544.7,23.3
			C-620-79.5-690.3-185.4-713.6-313.3c-28.2-153.6,16.5-283.4,130.4-389.8c36.1-33,146.9-47.7,191.6-26.3
			c16.5,8,26.9,22.6,33.7,38.6c41.6,99.8,83.2,197.7,124.2,297.4c8,19,4.3,37.9-4.3,56.9c-20.8,45.9-55.1,82.6-89.4,118.7
			c-25.7,26.3-26.9,50.8-8,82.6C-217.9,59.4-56.3,201.4,155.4,285.8c31.8,12.9,55.1,8,76.5-18.4c35.5-43.5,72.8-86.9,105.9-132.2
			c22.6-31.8,49-36.1,81.4-21.4c70.4,31.8,140.1,64.9,209.9,98.5c15.9,6.7,31.2,14.7,46.5,22c71,35.5,70.4,36.1,64.3,114.4
			c-11.6,153-126.7,228.3-262.5,265.6C448,623.1,416.2,623.7,384.9,621.8z"/>
	</g>
</g>
</svg>
