<?xml version="1.0" standalone="no"?>
<!DOCTYPE svg PUBLIC "-//W3C//DTD SVG 20010904//EN"
 "http://www.w3.org/TR/2001/REC-SVG-20010904/DTD/svg10.dtd">
<svg version="1.0" xmlns="http://www.w3.org/2000/svg"
 width="180.000000pt" height="180.000000pt" viewBox="0 0 180.000000 180.000000"
 preserveAspectRatio="xMidYMid meet">
<metadata>
Created by potrace 1.11, written by Peter Selinger 2001-2013
</metadata>
<g transform="translate(0.000000,180.000000) scale(0.100000,-0.100000)"
fill="#000000" stroke="none">
<path d="M695 1551 l-50 -6 0 -74 0 -73 -54 -20 c-29 -11 -83 -37 -120 -59
l-66 -38 -40 45 c-22 24 -44 44 -50 44 -5 0 -32 -20 -60 -44 l-49 -43 37 -47
38 -46 -62 -69 c-68 -76 -168 -218 -169 -239 0 -22 105 -173 170 -245 190
-208 488 -335 735 -313 235 22 443 123 611 298 85 88 184 228 184 258 0 26
-93 162 -162 235 -32 34 -58 66 -58 70 0 3 17 27 37 52 l38 46 -50 43 c-27 24
-55 44 -61 44 -6 0 -27 -20 -45 -45 -19 -24 -37 -45 -42 -45 -4 0 -26 12 -50
27 -23 15 -76 41 -117 59 l-75 31 0 74 0 74 -64 8 c-35 4 -65 6 -68 4 -2 -3
-6 -22 -9 -43 -12 -89 -2 -82 -119 -82 l-105 0 -5 32 c-2 17 -6 45 -7 61 -3
34 -12 36 -93 26z m382 -287 c82 -18 180 -63 257 -118 67 -48 181 -163 222
-226 l27 -40 -37 -55 c-53 -76 -181 -195 -262 -244 -307 -182 -662 -133 -924
127 -42 43 -91 98 -109 125 l-32 47 31 45 c103 149 268 274 435 328 111 37
260 41 392 11z"/>
<path d="M793 1222 c-101 -36 -167 -96 -212 -192 -22 -46 -26 -69 -26 -145 0
-78 4 -97 28 -146 34 -69 109 -142 182 -175 43 -20 71 -25 129 -26 87 0 132
13 202 58 131 83 193 266 139 407 -19 47 -49 -18 -46 -98 5 -114 -58 -222
-161 -277 -35 -19 -59 -23 -128 -23 -74 0 -91 3 -131 27 -102 60 -166 174
-156 277 15 148 135 261 282 265 64 2 125 30 106 49 -20 20 -152 19 -208 -1z"/>
<path d="M805 1096 c-86 -40 -135 -115 -135 -206 0 -132 100 -233 230 -233
119 0 207 73 229 188 14 73 8 83 -47 78 -91 -8 -162 57 -162 148 0 49 0 49
-32 49 -18 0 -56 -11 -83 -24z"/>
</g>
</svg>
